#!OML:ASF F:\VICON\USERDATA\INSTALL\Justin_Nancy\Justin_Nancy.ASF
:FULLY-SPECIFIED
:DEGREES
32
root 12.4736 16.8469 -19.7872 -0.773123 -7.00034 -1.91378
lowerback 6.18249 1.56419 3.06493
upperback -0.952139 2.46576 3.30244
thorax -4.47622 1.18614 1.45855
lowerneck -13.8668 -4.51404 -10.3599
upperneck 22.3715 -5.03279 4.91731
head 9.78197 -2.68094 2.8091
rclavicle -1.34055e-014 2.38542e-015
rhumerus -29.8877 -9.2179 -77.6165
rradius 44.1664
rwrist -2.16291
rhand -17.3011 11.7706
rfingers 7.12502
rthumb 8.94482 -18.0198
lclavicle -1.34055e-014 2.38542e-015
lhumerus -46.8266 32.7602 67.5092
lradius 13.7851
lwrist -23.1604
lhand -21.4063 21.1184
lfingers 7.12502
lthumb 4.982 51.0398
rfemur 18.8291 7.26824 29.8173
rtibia 24.6981
rfoot -10.6907 0.906851
rtoes -11.6292
lfemur -31.4762 -0.0783996 -14.5427
ltibia 23.5346
lfoot -7.49259 7.75388
ltoes -8.13287
33
root 12.4773 16.8599 -19.4826 -0.94582 -6.96041 -1.90115
lowerback 6.01618 1.59372 3.24678
upperback -0.920713 2.5061 3.25938
thorax -4.33998 1.20251 1.3133
lowerneck -14.0822 -4.55123 -10.249
upperneck 22.6432 -5.06508 4.79044
head 9.91576 -2.70114 2.74067
rclavicle 9.55409e-015 -1.11319e-014
rhumerus -30.0688 -9.63801 -77.3589
rradius 44.1889
rwrist -2.52991
rhand -16.8461 11.637
rfingers 7.12502
rthumb 9.38382 -18.1341
lclavicle 9.55409e-015 -1.11319e-014
lhumerus -48.3844 34.802 64.7403
lradius 13.0149
lwrist -26.3645
lhand -20.9166 20.7247
lfingers 7.12502
lthumb 5.4549 50.6345
rfemur 18.6205 6.71033 29.4694
rtibia 26.7181
rfoot -8.32168 1.96561
rtoes -11.0543
lfemur -31.459 -0.411048 -14.6176
ltibia 25.3219
lfoot -5.55415 7.01103
ltoes -6.79231
34
root 12.4851 16.884 -19.1804 -1.04049 -6.85983 -1.8965
lowerback 5.79934 1.52547 3.46032
upperback -1.00588 2.42207 3.25082
thorax -4.2971 1.15555 1.19826
lowerneck -14.3507 -4.53495 -10.3646
upperneck 23.3391 -5.02506 4.86782
head 10.2191 -2.69054 2.79577
rclavicle -3.55328e-015 -1.98785e-014
rhumerus -30.4165 -9.83969 -77.1161
rradius 44.1304
rwrist -2.68453
rhand -17.3924 11.4932
rfingers 7.12502
rthumb 8.85668 -18.301
lclavicle -3.55328e-015 -1.98785e-014
lhumerus -50.1333 36.5909 62.0661
lradius 12.3996
lwrist -29.3066
lhand -20.864 20.0316
lfingers 7.12502
lthumb 5.50564 49.9401
rfemur 18.0169 5.98697 29.0065
rtibia 28.9969
rfoot -5.24829 3.00014
rtoes -10.3061
lfemur -31.6356 -0.722724 -14.6795
ltibia 27.0981
lfoot -3.8272 6.74627
ltoes -10.6413
35
root 12.4901 16.9034 -18.885 -1.18635 -6.92128 -1.8397
lowerback 5.76328 1.5234 3.47271
upperback -1.12371 2.42597 3.29522
thorax -4.40112 1.15597 1.23685
lowerneck -14.2641 -4.51804 -10.4543
upperneck 23.6939 -4.99849 4.86056
head 10.3318 -2.69404 2.81664
rclavicle -3.24019e-014 0
rhumerus -30.8454 -9.921 -76.8188
rradius 44.0717
rwrist -2.94424
rhand -18.0821 11.0964
rfingers 7.12502
rthumb 8.19106 -18.7248
lclavicle -3.24019e-014 0
lhumerus -51.2939 37.3165 60.6949
lradius 12.0515
lwrist -30.8175
lhand -20.8707 20.1813
lfingers 7.12502
lthumb 5.49921 50.0899
rfemur 17.0835 5.51141 28.5457
rtibia 31.7376
rfoot -1.27351 3.74559
rtoes -9.67803
lfemur -31.5094 -0.35577 -14.9667
ltibia 28.5251
lfoot -2.50382 6.27728
ltoes -14.135
36
root 12.4865 16.9279 -18.5931 -1.24146 -6.84981 -1.25686
lowerback 5.70398 1.52134 2.77067
upperback -1.34813 2.37666 3.21383
thorax -4.62538 1.14676 1.54855
lowerneck -13.952 -4.51474 -10.3864
upperneck 23.8662 -5.02886 4.76575
head 10.3326 -2.72028 2.7732
rclavicle -1.00386e-014 -3.97569e-014
rhumerus -31.2835 -10.2044 -76.4927
rradius 43.7191
rwrist -3.00709
rhand -18.2452 11.1789
rfingers 7.12502
rthumb 8.03366 -18.6485
lclavicle -1.00386e-014 -3.97569e-014
lhumerus -51.6728 36.7932 60.9001
lradius 12.1582
lwrist -30.4116
lhand -20.513 20.9986
lfingers 7.12502
lthumb 5.84452 50.898
rfemur 15.6383 5.07441 27.5283
rtibia 34.928
rfoot 3.10294 4.03212
rtoes -8.35054
lfemur -31.3856 0.0860743 -15.8286
ltibia 29.6654
lfoot -0.809169 5.14412
ltoes -10.4463
37
root 12.4802 16.9313 -18.3109 -1.43709 -6.83699 -0.173219
lowerback 5.85099 1.58208 1.62803
upperback -1.50511 2.37276 2.92447
thorax -4.90462 1.17215 1.88255
lowerneck -14.2353 -4.53443 -10.3171
upperneck 24.3299 -5.07828 4.8421
head 10.5602 -2.73093 2.78319
rclavicle -2.28602e-015 -1.74931e-014
rhumerus -31.7516 -10.8417 -76.2023
rradius 43.3466
rwrist -2.92673
rhand -18.1503 11.4215
rfingers 7.12502
rthumb 8.12525 -18.4023
lclavicle -2.28602e-015 -1.74931e-014
lhumerus -51.8228 36.3232 61.0209
lradius 12.1233
lwrist -30.094
lhand -20.6374 21.6687
lfingers 7.12502
lthumb 5.72443 51.5714
rfemur 13.9976 4.6957 25.9626
rtibia 38.4329
rfoot 6.83231 4.57394
rtoes -10.9693
lfemur -31.0925 0.678117 -17.2307
ltibia 30.6078
lfoot 0.751451 3.94981
ltoes -7.39036
38
root 12.4695 16.9362 -18.0318 -1.88753 -7.13931 0.873852
lowerback 6.02103 1.73705 0.622083
upperback -1.30936 2.48603 2.59805
thorax -4.8264 1.25257 2.09324
lowerneck -14.7934 -4.59956 -10.3824
upperneck 24.4143 -5.18748 5.1913
head 10.7196 -2.73902 2.89871
rclavicle 2.1419e-014 1.43125e-014
rhumerus -31.9384 -11.5742 -76.0693
rradius 43.0977
rwrist -2.86207
rhand -17.9557 11.6681
rfingers 7.12502
rthumb 8.31312 -18.1483
lclavicle 2.1419e-014 1.43125e-014
lhumerus -52.4878 37.5427 59.2868
lradius 11.6784
lwrist -31.7607
lhand -20.9705 21.4561
lfingers 7.12502
lthumb 5.40285 51.3672
rfemur 12.4383 4.57899 24.4963
rtibia 42.054
rfoot 10.1211 5.47924
rtoes -3.41258
lfemur -30.1441 1.62334 -18.5894
ltibia 31.3865
lfoot 1.33361 3.6143
ltoes -7.47304
